<svg id="Layer_1" data-name="Layer 1" xmlns="http://www.w3.org/2000/svg" viewBox="0 0 1000 1000"><defs><style>.cls-1{fill:#1061ff;}.cls-2{fill:#727272;}.cls-3{fill:#d2e3fc;}.cls-4{fill:#fff;}</style></defs><rect class="cls-1" x="0.5" y="0.5" width="1000" height="1000" rx="70"/><path class="cls-2" d="M303.56,405.8a38.45,38.45,0,0,1,9.18-14.65l9.87-9.87A124,124,0,0,0,303.56,405.8Z"/><circle class="cls-3" cx="748.08" cy="523.27" r="75.35"/><circle class="cls-3" cx="251.92" cy="476.73" r="75.35"/><path class="cls-4" d="M504.83,470.51,375.91,599.44A123.75,123.75,0,0,1,181.88,449a38.62,38.62,0,0,0,9.19,39.95,85.11,85.11,0,0,0,118.53,1.78l0,0L417.35,383a123.72,123.72,0,0,1,175,0Z"/><path class="cls-4" d="M818.12,551a38.62,38.62,0,0,0-9.19-39.95,85.11,85.11,0,0,0-118.53-1.78l0,0L582.65,617a123.72,123.72,0,0,1-175,0l87.49-87.49L624.09,400.56A123.75,123.75,0,0,1,818.12,551Z"/></svg>