<svg id="Layer_1" data-name="Layer 1" xmlns="http://www.w3.org/2000/svg" viewBox="0 0 1000 1000"><defs><style>.cls-1{fill:#1061ff;}.cls-2{fill:#727272;}.cls-3{fill:#d2e3fc;}.cls-4{fill:#fff;}</style></defs><rect class="cls-1" width="1000" height="1000"/><path class="cls-2" d="M7003.06,7105.3a38.45,38.45,0,0,1,9.18-14.65l9.87-9.87A124,124,0,0,0,7003.06,7105.3Z" transform="translate(-6700 -6700)"/><circle class="cls-3" cx="747.58" cy="522.77" r="75.35"/><circle class="cls-3" cx="251.42" cy="476.23" r="75.35"/><path class="cls-4" d="M7204.33,7170l-128.92,128.93a123.75,123.75,0,0,1-194-150.46,38.62,38.62,0,0,0,9.19,40,85.11,85.11,0,0,0,118.53,1.78l0,0,107.71-107.71a123.72,123.72,0,0,1,175,0Z" transform="translate(-6700 -6700)"/><path class="cls-4" d="M7517.62,7250.52a38.62,38.62,0,0,0-9.19-40,85.11,85.11,0,0,0-118.53-1.78l0,0-107.71,107.71a123.72,123.72,0,0,1-175,0l87.49-87.49,128.92-128.93a123.75,123.75,0,0,1,194,150.46Z" transform="translate(-6700 -6700)"/></svg>